<?xml version="1.0" encoding="iso-8859-1"?>
<!-- Generator: Adobe Illustrator 19.0.0, SVG Export Plug-In . SVG Version: 6.00 Build 0)  -->
<svg version="1.1" id="Layer_1" xmlns="http://www.w3.org/2000/svg" xmlns:xlink="http://www.w3.org/1999/xlink" x="0px" y="0px"
	 viewBox="0 0 512 512" style="enable-background:new 0 0 512 512;" xml:space="preserve">
<g>
	<path style="fill:#F98869;" d="M372.997,310.084c0.369,0,0.671,0.302,0.671,0.671v20.51c0,11.995-9.814,21.807-21.807,21.807
		H191.146l-49.857-10.874c-1.879-3.219-2.958-6.956-2.958-10.932v-20.51c0-0.369,0.302-0.671,0.671-0.671h233.996V310.084z"/>
	<path style="fill:#F98869;" d="M326.217,222.507h46.781c0.369,0,0.671-0.302,0.671-0.671v-6.743
		c0-11.093-3.259-21.462-8.867-30.196l-36.016-24.824c-3.648-0.751-7.422-1.146-11.282-1.146H194.498
		c-30.892,0-56.166,25.275-56.166,56.166v6.743c0,0.369,0.302,0.671,0.671,0.671h127.062H326.217z"/>
</g>
<path style="fill:#FF6243;" d="M291.03,251.319h63.017c6.352,0,11.55,5.645,11.55,12.543v33.679c0,6.898-5.198,12.543-11.55,12.543
	H236.076h-60.602h-15.916c-6.352,0-11.55-5.645-11.55-12.543v-33.679c0-6.898,5.198-12.543,11.55-12.543h71.223L291.03,251.319z"/>
<path style="fill:#F25733;" d="M353.245,222.507c6.352,0,11.55,5.198,11.55,11.55v5.713c0,6.352-5.198,11.55-11.55,11.55h-58.075
	h-59.308h-77.107c-6.352,0-11.55-5.198-11.55-11.55v-5.713c0-6.352,5.198-11.55,11.55-11.55H353.245z"/>
<path style="fill:#FFDAAA;" d="M171.999,251.319c0,0,8.961,19.969,28.544,19.969c3.183,0,6.488-0.067,9.997-0.138l56.694,2.916
	c7.957,1.074,15.482,2.354,25.246,4.307c48.127,9.626,58.084-27.055,58.084-27.055H171.999V251.319z"/>
<path style="fill:#C70024;" d="M256.082,0C114.698-0.045,0.046,114.533,0,255.918C-0.045,397.303,114.533,511.955,255.918,512
	C397.303,512.045,511.955,397.467,512,256.082C512.045,114.698,397.467,0.045,256.082,0z M45.665,255.933
	c0.038-116.164,94.238-210.305,210.402-210.268c52.994,0.017,101.396,19.638,138.373,51.992L93.852,389.976
	C63.74,353.574,45.648,306.865,45.665,255.933z M255.933,466.335c-50.78-0.017-97.352-18.028-133.687-48.001l246.859-240.067
	L422,126.827c27.794,35.668,44.351,80.519,44.335,129.24C466.297,372.233,372.097,466.373,255.933,466.335z"/>
<g>
</g>
<g>
</g>
<g>
</g>
<g>
</g>
<g>
</g>
<g>
</g>
<g>
</g>
<g>
</g>
<g>
</g>
<g>
</g>
<g>
</g>
<g>
</g>
<g>
</g>
<g>
</g>
<g>
</g>
</svg>
